{"title":"Iron Man 3 2013 R6 LiNE READNFO XViD - JUSTiCE","uid":8466923,"size":1997224412,"categoryP":"video","categoryS":"movies","magnet":"?xt=urn:btih:afef20c000435f8ae8801c04aab3ea87e37c142b&amp;dn=Iron+Man+3+2013+R6+LiNE+READNFO+XViD+-+JUSTiCE&amp;tr=udp%3A%2F%2Ftracker.openbittorrent.com%3A80&amp;tr=udp%3A%2F%2Fopen.demonii.com%3A1337&amp;tr=udp%3A%2F%2Ftracker.coppersurfer.tk%3A6969&amp;tr=udp%3A%2F%2Fexodus.desync.com%3A6969","seeders":1,"leechers":1,"uploader":".BONE.","files":-1,"time":1368380327,"description":"Iron Man 3 2013 R6 LiNE READNFO XViD - JUSTiCE\n\n\n\nSOURCE : VIDEO - R6\n        AUDIO - UNiQUE\n\n\nVideo and audio both cleaned and given justice.\nCheck sample and see.....\n\n\nOk same video as our v2 cam release ....however this time i have syncd the line audio off\nunique's release to our video.\nThey used the other video that was nice and had no watermarks ...but have HC subs.So thought doing\nthis,this way gives you another option.\nAlso have cleaned the audio up in adobe,changing the eq bands aswell as using a light hiss filter.\nWill say there is parts where theres some static that comes and goes and whilst i've toned it down\nit was impossible to remove without wrecking the audio so ....\n &lt;a href=&quot;\nhttp://www.imdb.com/title/tt1300854/&quot; rel=&quot;nofollow&quot; target=&quot;_NEW&quot;&gt;\nhttp://www.imdb.com/title/tt1300854/&lt;/a&gt;\n\nVideo\nID                               : 0\nFormat                           : MPEG-4 Visual\nFormat profile                   : Advanced Simple@L5\nFormat settings, BVOP            : 2\nFormat settings, QPel            : No\nFormat settings, GMC             : No warppoints\nFormat settings, Matrix          : Default (MPEG)\nMuxing mode                      : Packed bitstream\nCodec ID                         : XVID\nCodec ID/Hint                    : XviD\nDuration                         : 2h 8mn\nBit rate                         : 1 810 Kbps\nWidth                            : 720 pixels\nHeight                           : 304 pixels\nDisplay aspect ratio             : 2.35:1\nFrame rate                       : 29.970 fps\nColor space                      : YUV\nChroma subsampling               : 4:2:0\nBit depth                        : 8 bits\nScan type                        : Progressive\nCompression mode                 : Lossy\nBits/(Pixel*Frame)               : 0.276\nStream size                      : 1.63 GiB (93%)\nWriting library                  : XviD 64\n\nAudio\nID                               : 1\nFormat                           : MPEG Audio\nFormat version                   : Version 1\nFormat profile                   : Layer 3\nMode                             : Joint stereo\nMode extension                   : MS Stereo\nCodec ID                         : 55\nCodec ID/Hint                    : MP3\nDuration                         : 2h 8mn\nBit rate mode                    : Constant\nBit rate                         : 128 Kbps\nChannel(s)                       : 2 channels\nSampling rate                    : 48.0 KHz\nCompression mode                 : Lossy\nDelay relative to video          : 10ms\nStream size                      : 118 MiB (7%)\nAlignment                        : Split accross interleaves\nInterleave, duration             : 33 ms (1.00 video frame)\nInterleave, preload duration     : 500 ms\n\n\n\nOh added bonus ...THE after end credit scene is also inc :)\nSorry about the file missing on some site on our v2 release ...for some reason it\nwasn't inc on all the sites it was upped to.\n\n\n &lt;a href=&quot;\nhttp://imgbox.com/g/7gh5oOuPe8&quot; rel=&quot;nofollow&quot; target=&quot;_NEW&quot;&gt;\nhttp://imgbox.com/g/7gh5oOuPe8&lt;/a&gt;","torrent":{"xt":"urn:btih:afef20c000435f8ae8801c04aab3ea87e37c142b","amp;dn":"Iron+Man+3+2013+R6+LiNE+READNFO+XViD+-+JUSTiCE","amp;tr":["udp%3A%2F%2Ftracker.openbittorrent.com%3A80","udp%3A%2F%2Fopen.demonii.com%3A1337","udp%3A%2F%2Ftracker.coppersurfer.tk%3A6969","udp%3A%2F%2Fexodus.desync.com%3A6969"],"infoHash":"afef20c000435f8ae8801c04aab3ea87e37c142b","infoHashBuffer":{"type":"Buffer","data":[175,239,32,192,0,67,95,138,232,128,28,4,170,179,234,135,227,124,20,43]},"announce":[],"urlList":[]}}